<svg xmlns="http://www.w3.org/2000/svg" version="1.1" xmlns:xlink="http://www.w3.org/1999/xlink" xmlns:svgjs="http://svgjs.dev/svgjs" viewBox="0 0 800 800" opacity="0.47" width="800" height="800"><g stroke-width="2" stroke="hsl(29, 58%, 21%)" fill="none"><circle r="2.394736842105263" cx="0" cy="0" fill="hsl(29, 58%, 21%)" stroke="none"></circle><circle r="2.394736842105263" cx="88.88888888888889" cy="0" fill="hsl(29, 58%, 21%)" stroke="none"></circle><circle r="2.394736842105263" cx="177.77777777777777" cy="0" fill="hsl(29, 58%, 21%)" stroke="none"></circle><circle r="2.394736842105263" cx="266.66666666666663" cy="0" fill="hsl(29, 58%, 21%)" stroke="none"></circle><circle r="2.394736842105263" cx="355.55555555555554" cy="0" fill="hsl(29, 58%, 21%)" stroke="none"></circle><circle r="2.394736842105263" cx="444.44444444444446" cy="0" fill="hsl(29, 58%, 21%)" stroke="none"></circle><circle r="2.394736842105263" cx="533.3333333333334" cy="0" fill="hsl(29, 58%, 21%)" stroke="none"></circle><circle r="2.394736842105263" cx="622.2222222222223" cy="0" fill="hsl(29, 58%, 21%)" stroke="none"></circle><circle r="2.394736842105263" cx="711.1111111111112" cy="0" fill="hsl(29, 58%, 21%)" stroke="none"></circle><circle r="2.394736842105263" cx="800.0000000000001" cy="0" fill="hsl(29, 58%, 21%)" stroke="none"></circle><circle r="2.394736842105263" cx="0" cy="80" fill="hsl(29, 58%, 21%)" stroke="none"></circle><circle r="2.394736842105263" cx="88.88888888888889" cy="80" fill="hsl(29, 58%, 21%)" stroke="none"></circle><circle r="2.394736842105263" cx="177.77777777777777" cy="80" fill="hsl(29, 58%, 21%)" stroke="none"></circle><circle r="2.394736842105263" cx="266.66666666666663" cy="80" fill="hsl(29, 58%, 21%)" stroke="none"></circle><circle r="2.394736842105263" cx="355.55555555555554" cy="80" fill="hsl(29, 58%, 21%)" stroke="none"></circle><circle r="2.394736842105263" cx="444.44444444444446" cy="80" fill="hsl(29, 58%, 21%)" stroke="none"></circle><circle r="2.394736842105263" cx="533.3333333333334" cy="80" fill="hsl(29, 58%, 21%)" stroke="none"></circle><circle r="2.394736842105263" cx="622.2222222222223" cy="80" fill="hsl(29, 58%, 21%)" stroke="none"></circle><circle r="2.394736842105263" cx="711.1111111111112" cy="80" fill="hsl(29, 58%, 21%)" stroke="none"></circle><circle r="2.394736842105263" cx="800.0000000000001" cy="80" fill="hsl(29, 58%, 21%)" stroke="none"></circle><circle r="2.394736842105263" cx="0" cy="160" fill="hsl(29, 58%, 21%)" stroke="none"></circle><circle r="2.394736842105263" cx="88.88888888888889" cy="160" fill="hsl(29, 58%, 21%)" stroke="none"></circle><circle r="2.394736842105263" cx="177.77777777777777" cy="160" fill="hsl(29, 58%, 21%)" stroke="none"></circle><circle r="2.394736842105263" cx="266.66666666666663" cy="160" fill="hsl(29, 58%, 21%)" stroke="none"></circle><circle r="2.394736842105263" cx="355.55555555555554" cy="160" fill="hsl(29, 58%, 21%)" stroke="none"></circle><circle r="2.394736842105263" cx="444.44444444444446" cy="160" fill="hsl(29, 58%, 21%)" stroke="none"></circle><circle r="2.394736842105263" cx="533.3333333333334" cy="160" fill="hsl(29, 58%, 21%)" stroke="none"></circle><circle r="2.394736842105263" cx="622.2222222222223" cy="160" fill="hsl(29, 58%, 21%)" stroke="none"></circle><circle r="2.394736842105263" cx="711.1111111111112" cy="160" fill="hsl(29, 58%, 21%)" stroke="none"></circle><circle r="2.394736842105263" cx="800.0000000000001" cy="160" fill="hsl(29, 58%, 21%)" stroke="none"></circle><circle r="2.394736842105263" cx="0" cy="240" fill="hsl(29, 58%, 21%)" stroke="none"></circle><circle r="2.394736842105263" cx="88.88888888888889" cy="240" fill="hsl(29, 58%, 21%)" stroke="none"></circle><circle r="2.394736842105263" cx="177.77777777777777" cy="240" fill="hsl(29, 58%, 21%)" stroke="none"></circle><circle r="2.394736842105263" cx="266.66666666666663" cy="240" fill="hsl(29, 58%, 21%)" stroke="none"></circle><circle r="2.394736842105263" cx="355.55555555555554" cy="240" fill="hsl(29, 58%, 21%)" stroke="none"></circle><circle r="2.394736842105263" cx="444.44444444444446" cy="240" fill="hsl(29, 58%, 21%)" stroke="none"></circle><circle r="2.394736842105263" cx="533.3333333333334" cy="240" fill="hsl(29, 58%, 21%)" stroke="none"></circle><circle r="2.394736842105263" cx="622.2222222222223" cy="240" fill="hsl(29, 58%, 21%)" stroke="none"></circle><circle r="2.394736842105263" cx="711.1111111111112" cy="240" fill="hsl(29, 58%, 21%)" stroke="none"></circle><circle r="2.394736842105263" cx="800.0000000000001" cy="240" fill="hsl(29, 58%, 21%)" stroke="none"></circle><circle r="2.394736842105263" cx="0" cy="320" fill="hsl(29, 58%, 21%)" stroke="none"></circle><circle r="2.394736842105263" cx="88.88888888888889" cy="320" fill="hsl(29, 58%, 21%)" stroke="none"></circle><circle r="2.394736842105263" cx="177.77777777777777" cy="320" fill="hsl(29, 58%, 21%)" stroke="none"></circle><circle r="2.394736842105263" cx="266.66666666666663" cy="320" fill="hsl(29, 58%, 21%)" stroke="none"></circle><circle r="2.394736842105263" cx="355.55555555555554" cy="320" fill="hsl(29, 58%, 21%)" stroke="none"></circle><circle r="2.394736842105263" cx="444.44444444444446" cy="320" fill="hsl(29, 58%, 21%)" stroke="none"></circle><circle r="2.394736842105263" cx="533.3333333333334" cy="320" fill="hsl(29, 58%, 21%)" stroke="none"></circle><circle r="2.394736842105263" cx="622.2222222222223" cy="320" fill="hsl(29, 58%, 21%)" stroke="none"></circle><circle r="2.394736842105263" cx="711.1111111111112" cy="320" fill="hsl(29, 58%, 21%)" stroke="none"></circle><circle r="2.394736842105263" cx="800.0000000000001" cy="320" fill="hsl(29, 58%, 21%)" stroke="none"></circle><circle r="2.394736842105263" cx="0" cy="400" fill="hsl(29, 58%, 21%)" stroke="none"></circle><circle r="2.394736842105263" cx="88.88888888888889" cy="400" fill="hsl(29, 58%, 21%)" stroke="none"></circle><circle r="2.394736842105263" cx="177.77777777777777" cy="400" fill="hsl(29, 58%, 21%)" stroke="none"></circle><circle r="2.394736842105263" cx="266.66666666666663" cy="400" fill="hsl(29, 58%, 21%)" stroke="none"></circle><circle r="2.394736842105263" cx="355.55555555555554" cy="400" fill="hsl(29, 58%, 21%)" stroke="none"></circle><circle r="2.394736842105263" cx="444.44444444444446" cy="400" fill="hsl(29, 58%, 21%)" stroke="none"></circle><circle r="2.394736842105263" cx="533.3333333333334" cy="400" fill="hsl(29, 58%, 21%)" stroke="none"></circle><circle r="2.394736842105263" cx="622.2222222222223" cy="400" fill="hsl(29, 58%, 21%)" stroke="none"></circle><circle r="2.394736842105263" cx="711.1111111111112" cy="400" fill="hsl(29, 58%, 21%)" stroke="none"></circle><circle r="2.394736842105263" cx="800.0000000000001" cy="400" fill="hsl(29, 58%, 21%)" stroke="none"></circle><circle r="2.394736842105263" cx="0" cy="480" fill="hsl(29, 58%, 21%)" stroke="none"></circle><circle r="2.394736842105263" cx="88.88888888888889" cy="480" fill="hsl(29, 58%, 21%)" stroke="none"></circle><circle r="2.394736842105263" cx="177.77777777777777" cy="480" fill="hsl(29, 58%, 21%)" stroke="none"></circle><circle r="2.394736842105263" cx="266.66666666666663" cy="480" fill="hsl(29, 58%, 21%)" stroke="none"></circle><circle r="2.394736842105263" cx="355.55555555555554" cy="480" fill="hsl(29, 58%, 21%)" stroke="none"></circle><circle r="2.394736842105263" cx="444.44444444444446" cy="480" fill="hsl(29, 58%, 21%)" stroke="none"></circle><circle r="2.394736842105263" cx="533.3333333333334" cy="480" fill="hsl(29, 58%, 21%)" stroke="none"></circle><circle r="2.394736842105263" cx="622.2222222222223" cy="480" fill="hsl(29, 58%, 21%)" stroke="none"></circle><circle r="2.394736842105263" cx="711.1111111111112" cy="480" fill="hsl(29, 58%, 21%)" stroke="none"></circle><circle r="2.394736842105263" cx="800.0000000000001" cy="480" fill="hsl(29, 58%, 21%)" stroke="none"></circle><circle r="2.394736842105263" cx="0" cy="560" fill="hsl(29, 58%, 21%)" stroke="none"></circle><circle r="2.394736842105263" cx="88.88888888888889" cy="560" fill="hsl(29, 58%, 21%)" stroke="none"></circle><circle r="2.394736842105263" cx="177.77777777777777" cy="560" fill="hsl(29, 58%, 21%)" stroke="none"></circle><circle r="2.394736842105263" cx="266.66666666666663" cy="560" fill="hsl(29, 58%, 21%)" stroke="none"></circle><circle r="2.394736842105263" cx="355.55555555555554" cy="560" fill="hsl(29, 58%, 21%)" stroke="none"></circle><circle r="2.394736842105263" cx="444.44444444444446" cy="560" fill="hsl(29, 58%, 21%)" stroke="none"></circle><circle r="2.394736842105263" cx="533.3333333333334" cy="560" fill="hsl(29, 58%, 21%)" stroke="none"></circle><circle r="2.394736842105263" cx="622.2222222222223" cy="560" fill="hsl(29, 58%, 21%)" stroke="none"></circle><circle r="2.394736842105263" cx="711.1111111111112" cy="560" fill="hsl(29, 58%, 21%)" stroke="none"></circle><circle r="2.394736842105263" cx="800.0000000000001" cy="560" fill="hsl(29, 58%, 21%)" stroke="none"></circle><circle r="2.394736842105263" cx="0" cy="640" fill="hsl(29, 58%, 21%)" stroke="none"></circle><circle r="2.394736842105263" cx="88.88888888888889" cy="640" fill="hsl(29, 58%, 21%)" stroke="none"></circle><circle r="2.394736842105263" cx="177.77777777777777" cy="640" fill="hsl(29, 58%, 21%)" stroke="none"></circle><circle r="2.394736842105263" cx="266.66666666666663" cy="640" fill="hsl(29, 58%, 21%)" stroke="none"></circle><circle r="2.394736842105263" cx="355.55555555555554" cy="640" fill="hsl(29, 58%, 21%)" stroke="none"></circle><circle r="2.394736842105263" cx="444.44444444444446" cy="640" fill="hsl(29, 58%, 21%)" stroke="none"></circle><circle r="2.394736842105263" cx="533.3333333333334" cy="640" fill="hsl(29, 58%, 21%)" stroke="none"></circle><circle r="2.394736842105263" cx="622.2222222222223" cy="640" fill="hsl(29, 58%, 21%)" stroke="none"></circle><circle r="2.394736842105263" cx="711.1111111111112" cy="640" fill="hsl(29, 58%, 21%)" stroke="none"></circle><circle r="2.394736842105263" cx="800.0000000000001" cy="640" fill="hsl(29, 58%, 21%)" stroke="none"></circle><circle r="2.394736842105263" cx="0" cy="720" fill="hsl(29, 58%, 21%)" stroke="none"></circle><circle r="2.394736842105263" cx="88.88888888888889" cy="720" fill="hsl(29, 58%, 21%)" stroke="none"></circle><circle r="2.394736842105263" cx="177.77777777777777" cy="720" fill="hsl(29, 58%, 21%)" stroke="none"></circle><circle r="2.394736842105263" cx="266.66666666666663" cy="720" fill="hsl(29, 58%, 21%)" stroke="none"></circle><circle r="2.394736842105263" cx="355.55555555555554" cy="720" fill="hsl(29, 58%, 21%)" stroke="none"></circle><circle r="2.394736842105263" cx="444.44444444444446" cy="720" fill="hsl(29, 58%, 21%)" stroke="none"></circle><circle r="2.394736842105263" cx="533.3333333333334" cy="720" fill="hsl(29, 58%, 21%)" stroke="none"></circle><circle r="2.394736842105263" cx="622.2222222222223" cy="720" fill="hsl(29, 58%, 21%)" stroke="none"></circle><circle r="2.394736842105263" cx="711.1111111111112" cy="720" fill="hsl(29, 58%, 21%)" stroke="none"></circle><circle r="2.394736842105263" cx="800.0000000000001" cy="720" fill="hsl(29, 58%, 21%)" stroke="none"></circle><circle r="2.394736842105263" cx="0" cy="800" fill="hsl(29, 58%, 21%)" stroke="none"></circle><circle r="2.394736842105263" cx="88.88888888888889" cy="800" fill="hsl(29, 58%, 21%)" stroke="none"></circle><circle r="2.394736842105263" cx="177.77777777777777" cy="800" fill="hsl(29, 58%, 21%)" stroke="none"></circle><circle r="2.394736842105263" cx="266.66666666666663" cy="800" fill="hsl(29, 58%, 21%)" stroke="none"></circle><circle r="2.394736842105263" cx="355.55555555555554" cy="800" fill="hsl(29, 58%, 21%)" stroke="none"></circle><circle r="2.394736842105263" cx="444.44444444444446" cy="800" fill="hsl(29, 58%, 21%)" stroke="none"></circle><circle r="2.394736842105263" cx="533.3333333333334" cy="800" fill="hsl(29, 58%, 21%)" stroke="none"></circle><circle r="2.394736842105263" cx="622.2222222222223" cy="800" fill="hsl(29, 58%, 21%)" stroke="none"></circle><circle r="2.394736842105263" cx="711.1111111111112" cy="800" fill="hsl(29, 58%, 21%)" stroke="none"></circle><circle r="2.394736842105263" cx="800.0000000000001" cy="800" fill="hsl(29, 58%, 21%)" stroke="none"></circle></g></svg>